<svg width="620" height="515" viewBox="0 0 620 515" fill="none" xmlns="http://www.w3.org/2000/svg">
<path d="M302.699 172.441C302.699 169.65 300.436 167.387 297.645 167.387C294.853 167.387 292.591 169.65 292.591 172.441V509.398C292.591 512.189 294.853 514.452 297.645 514.452C300.436 514.452 302.699 512.189 302.699 509.398V172.441Z" fill="#2B254E"/>
<path fill-rule="evenodd" clip-rule="evenodd" d="M103.333 188.165L99.1214 207.821L73.288 214.56L27.5181 227.477L43.2428 207.821L17.6902 212.875L40.154 199.719L20.4982 199.678L0 186.48L24.4293 188.206C47.2675 190.987 58.6866 192.377 58.6866 192.377C58.6866 192.377 47.2675 185.357 24.4293 171.317L103.333 188.165ZM515.543 203.328L594.447 186.48C582.28 194.932 576.196 199.157 576.196 199.157C576.196 199.157 583.309 200.548 597.536 203.328L620 218.491L597.536 212.355L568.614 212.314L601.187 228.038L565.245 218.491L591.359 242.64L549.52 222.984H519.755L515.543 203.328ZM304.954 44.3855L304.287 28.6451L298.111 16.5383L314.348 27.9591L313.455 13.5323L294.897 0L302.323 1.41692L317.529 10.4755L322.091 25.1844L326.104 3.08751L329.587 21.004L338.676 8.69646L332.628 31.9719L344.538 18.2829L334.149 46.6434L304.954 44.3855ZM233.251 373.388L248.065 383.262L244.802 409.566L239.829 456.463L235.258 449.749L233.292 432.339L214.479 456.488L222.531 425.963L210.548 449.749L199.877 462.666L203.528 446.66C210.829 428.315 214.479 419.142 214.479 419.142C214.479 419.142 210.829 425.132 203.528 437.113L192.333 442.463L233.251 373.388ZM309.072 385.748L326.293 390.261L331.772 416.194L342.338 462.156L335.553 456.368L328.948 440.988L328.304 441.474L328.252 474.058L324.601 467.038L318.143 424.638H317.301L315.054 456.368L311.123 476.304H310L307.473 456.368V438.958L302.699 452.717L292.871 464.381L309.072 385.748Z" fill="#FFD25B"/>
<path fill-rule="evenodd" clip-rule="evenodd" d="M297.645 167.147L268.161 242.681H339.765L318.705 172.763L297.645 167.147Z" fill="#FFD25B"/>
<mask id="mask0_256_903" style="mask-type:alpha" maskUnits="userSpaceOnUse" x="215" y="237" width="135" height="170">
<path d="M231.096 338.672L219.062 370.145C215.563 379.295 214.961 389.3 217.337 398.804C219.396 401.799 223.982 403.859 231.096 404.982C238.209 406.105 243.368 406.134 246.571 405.068L250.481 400.831C255.48 395.414 259.363 389.067 261.91 382.151L293.274 296.984L297.645 296.875V378.4C297.645 387.693 300.287 396.794 305.262 404.642C309.357 405.992 314.118 406.667 319.547 406.667C324.976 406.667 328.626 405.637 330.498 403.578C336.537 396.441 340.295 387.658 341.289 378.363L349.311 303.292L339.764 242.681C334.024 241.184 327.004 240.435 318.705 240.435C310.405 240.435 293.558 239.391 268.161 237.305L231.096 338.672Z" fill="white"/>
</mask>
<g mask="url(#mask0_256_903)">
<path d="M231.096 338.672L219.062 370.145C215.563 379.295 214.961 389.3 217.337 398.804C219.396 401.799 223.982 403.859 231.096 404.982C238.209 406.105 243.368 406.134 246.571 405.068L250.481 400.831C255.48 395.414 259.363 389.067 261.91 382.151L293.274 296.984L297.645 296.875V378.4C297.645 387.693 300.287 396.794 305.262 404.642C309.357 405.992 314.118 406.667 319.547 406.667C324.976 406.667 328.626 405.637 330.498 403.578C336.537 396.441 340.295 387.658 341.289 378.363L349.311 303.292L339.764 242.681C334.024 241.184 327.004 240.435 318.705 240.435C310.405 240.435 293.558 239.391 268.161 237.305L231.096 338.672Z" fill="#FF6D5B"/>
<path fill-rule="evenodd" clip-rule="evenodd" d="M269.94 360.626L250.19 364.828L270.821 343.801L265.058 308.914L286.062 321.262L269.94 360.626Z" fill="#FFD25B"/>
</g>
<path fill-rule="evenodd" clip-rule="evenodd" d="M338.08 172.16C353.43 183.018 369.061 190.693 384.973 195.186C400.885 199.678 446.842 199.678 522.844 195.186V242.682L424.598 246.292C418.808 246.504 413.02 245.82 407.439 244.262L349.312 228.039L384.973 329.687L372.173 331.199L365.317 324.674L362.509 331.133L345.52 334.346L339.764 324.674L333.957 335.712L308.877 338.673L315.054 174.407L338.08 172.16ZM277.708 167.387L299.049 171.037L240.643 338.673L216.214 333.379L213.967 326.359L207.402 331.534L201.612 330.29V317.935L190.726 328.676L176.902 326.318L240.643 211.472C220.8 219.923 206.199 224.149 196.839 224.149C187.479 224.149 153.97 224.149 96.3134 224.149V201.966V180.023C162.394 176.279 203.11 174.407 218.46 174.407C233.81 174.407 253.56 172.067 277.708 167.387Z" fill="#2B254E"/>
<path fill-rule="evenodd" clip-rule="evenodd" d="M522.844 195.186H572.124C574.373 195.186 576.196 197.008 576.196 199.257C576.196 201.506 574.373 203.329 572.124 203.329H522.844V195.186ZM47.3144 195.186H96.5942V203.329H47.3144C45.0657 203.329 43.2428 201.506 43.2428 199.257C43.2428 197.008 45.0657 195.186 47.3144 195.186Z" fill="#847DAA"/>
<path fill-rule="evenodd" clip-rule="evenodd" d="M329.737 186.2L335.514 275.784L335.553 275.774L336.395 284.801L333.306 284.76V276.584L328.062 277.066L328.813 285.082H325.725V277.281L320.771 277.737L321.513 285.644H318.424V277.952L313.37 278.417V286.205H310.842L311.115 278.286L309.005 186.2C301.448 186.2 294.947 186.2 294.556 186.2C293.714 186.2 283.043 165.421 322.355 168.51C336.154 169.594 342.971 166.492 347.065 168.51C349.795 169.856 350.263 173.6 348.469 179.742C341.917 184.047 336.301 186.2 331.621 186.2C331.106 186.2 330.471 186.2 329.737 186.2Z" fill="#60588E"/>
<path fill-rule="evenodd" clip-rule="evenodd" d="M215.371 112.953C217.906 124.103 225.207 132.794 237.274 139.025C249.34 145.257 267.873 150.03 292.871 153.346L367.46 153.383L380.402 147.668L387.588 144.494C395.668 140.927 402.685 135.325 407.955 128.237L410.525 124.781C410.065 122.23 402.858 118.1 388.904 112.391C374.95 106.681 356.776 100.613 334.381 94.1862C325.399 88.1183 312.084 86.6643 294.436 89.8243C278.537 92.6711 254.061 92.6488 224.638 104.529C222.479 105.4 219.39 108.208 215.371 112.953Z" fill="#2B254E"/>
<path fill-rule="evenodd" clip-rule="evenodd" d="M270.969 164.017C267.6 164.766 265.915 167.48 265.915 172.16C265.915 176.84 275.462 181.534 294.556 186.241C296.929 182.784 299.268 180.35 301.576 178.941C303.884 177.531 308.002 176.02 313.931 174.407L270.969 164.017Z" fill="#847DAA"/>
<mask id="mask1_256_903" style="mask-type:alpha" maskUnits="userSpaceOnUse" x="247" y="76" width="125" height="98">
<path d="M309.361 173.556C321.92 173.556 327.004 173.882 342.985 170.28C347.123 169.347 347.726 166.95 351.206 164.96C353.423 163.692 356.248 161.889 358.144 161.125C371.285 155.83 371.44 138.856 371.44 124.642C371.44 104.268 347.434 85.6236 330.261 78.5055C320.604 74.5031 321.863 77.6249 309.361 77.6249C300.718 77.6249 307.127 74.3175 299.631 77.2073C276.998 85.9328 250.082 102.744 247.668 122.762C245.902 137.41 250.558 158.316 267.635 164.991C268.651 165.388 273.204 166.886 275.278 167.858C277.26 168.787 277.749 170.499 278.702 170.886C287.75 174.562 297.836 173.556 309.361 173.556Z" fill="white"/>
</mask>
<g mask="url(#mask1_256_903)">
<path d="M304.27 173.287C316.76 174.6 321.783 175.456 338.052 173.544C342.265 173.049 343.116 170.728 346.784 169.113C349.122 168.084 352.119 166.586 354.085 166.024C367.708 162.132 369.636 145.267 371.122 131.131C373.251 110.868 351.326 89.8168 334.991 80.9425C325.806 75.9527 326.731 79.189 314.297 77.8821C305.702 76.9787 312.422 74.3594 304.665 76.4498C281.243 82.7617 252.717 96.6672 248.225 116.323C244.937 130.707 247.382 151.984 263.668 160.408C264.637 160.909 269.009 162.875 270.969 164.058C272.843 165.19 273.151 166.944 274.058 167.428C282.672 172.029 292.808 172.083 304.27 173.287Z" fill="#FF6D5B"/>
</g>
<path fill-rule="evenodd" clip-rule="evenodd" d="M285.564 103.338L293.242 104.417C295.986 104.803 298.364 106.513 299.604 108.991C302.732 115.245 304.233 118.82 304.107 119.716C303.981 120.611 301.643 123.035 297.092 126.988C295.252 128.586 292.81 129.309 290.396 128.97L281.498 127.72C278.896 127.354 276.614 125.795 275.327 123.504C272.922 119.225 271.808 116.459 271.984 115.207C272.162 113.94 274.113 111 277.837 106.388C279.698 104.084 282.631 102.926 285.564 103.338ZM340.87 109.731L346.395 110.214C349.303 110.468 351.871 112.21 353.184 114.816C356.116 120.637 357.543 123.989 357.466 124.873C357.389 125.75 355.479 128.201 351.735 132.227C349.967 134.128 347.42 135.108 344.833 134.882L338.1 134.293C335.32 134.05 332.841 132.445 331.48 130.009C329.303 126.111 328.267 123.552 328.374 122.333C328.483 121.088 330.054 118.147 333.086 113.511C334.786 110.913 337.777 109.46 340.87 109.731Z" fill="white"/>
<path fill-rule="evenodd" clip-rule="evenodd" d="M290.906 119.412C288.735 119.412 286.975 117.652 286.975 115.48C286.975 113.309 288.735 111.549 290.906 111.549C293.077 111.549 294.837 113.309 294.837 115.48C294.837 117.652 293.077 119.412 290.906 119.412ZM344.155 125.692C341.984 125.692 340.224 123.932 340.224 121.76C340.224 119.589 341.984 117.829 344.155 117.829C346.326 117.829 348.086 119.589 348.086 121.76C348.086 123.932 346.326 125.692 344.155 125.692ZM318.78 114.306C318.934 113.935 319.274 113.674 319.672 113.623C320.288 113.543 320.851 113.977 320.931 114.592L323.855 137.081C323.866 137.171 323.867 137.263 323.857 137.354C323.785 137.97 323.228 138.412 322.612 138.341L310.918 136.992C310.814 136.98 310.713 136.953 310.616 136.913C310.043 136.676 309.771 136.018 310.009 135.446L318.78 114.306ZM268.858 137.058L282.121 137.538L291.952 145.295L303.742 140.811L312.453 148.647L326.126 142.905L333.521 148.018L340.549 143.867L356.288 147.552L340.882 148.629L330.708 156.096L323.997 148.684L310.943 155.226L301.613 146.59L292.422 152.018L281.333 142.378L268.858 137.058Z" fill="#2B254E"/>
<path fill-rule="evenodd" clip-rule="evenodd" d="M296.769 45.2956L295.118 63.7722L338.641 69.1073L339.481 49.9957C339.647 46.2262 337.112 42.8706 333.44 42.0002C325.785 40.1851 319.769 39.0301 315.395 38.5351C311.907 38.1405 308.221 38.0079 304.338 38.1373C300.369 38.2695 297.122 41.3404 296.769 45.2956Z" fill="#60588E"/>
<mask id="mask2_256_903" style="mask-type:alpha" maskUnits="userSpaceOnUse" x="215" y="42" width="196" height="84">
<path d="M297.645 42.7539C286.226 67.0897 269.94 83.5493 248.786 92.1329C234.818 97.8009 224.881 101.076 219.693 106.57C218.049 108.311 216.608 110.439 215.371 112.953C220.324 114.511 223.974 115.54 226.322 116.042C255.245 122.219 276.772 118.801 289.783 116.323C295.994 115.14 305.417 112.847 318.054 109.444C325.284 107.497 332.83 107.016 340.248 108.028C371.171 112.247 390.104 115.48 397.047 117.727C404.808 120.238 409.242 122.752 410.347 125.267C411.178 119.45 409.101 114.88 404.117 111.556C401.689 109.936 387.523 106.742 377.11 99.9953C371.436 96.3188 363.51 89.2985 353.33 78.9342C347.266 72.7592 343.04 65.0176 341.127 56.5765L339.203 48.0891L297.645 42.7539Z" fill="white"/>
</mask>
<g mask="url(#mask2_256_903)">
<path d="M297.645 42.7539C286.226 67.0897 269.94 83.5493 248.786 92.1329C234.818 97.8009 224.881 101.076 219.693 106.57C218.049 108.311 216.608 110.439 215.371 112.953C220.324 114.511 223.974 115.54 226.322 116.042C255.245 122.219 276.772 118.801 289.783 116.323C295.994 115.14 305.417 112.847 318.054 109.444C325.284 107.497 332.83 107.016 340.248 108.028C371.171 112.247 390.104 115.48 397.047 117.727C404.808 120.238 409.242 122.752 410.347 125.267C411.178 119.45 409.101 114.88 404.117 111.556C401.689 109.936 387.523 106.742 377.11 99.9953C371.436 96.3188 363.51 89.2985 353.33 78.9342C347.266 72.7592 343.04 65.0176 341.127 56.5765L339.203 48.0891L297.645 42.7539Z" fill="#60588E"/>
<mask id="mask3_256_903" style="mask-type:alpha" maskUnits="userSpaceOnUse" x="272" y="44" width="52" height="41">
<path d="M272.092 78.1341L290.063 66.3406L297.645 84.0308L306.63 66.3406L323.478 64.0942L306.63 56.5127L295.118 44.7192L272.092 78.1341Z" fill="white"/>
</mask>
<g mask="url(#mask3_256_903)">
<path d="M272.092 78.1341L290.063 66.3406L297.645 84.0308L306.63 66.3406L323.478 64.0942L306.63 56.5127L295.118 44.7192L272.092 78.1341Z" fill="#2B254E"/>
<path fill-rule="evenodd" clip-rule="evenodd" d="M302.138 52.3013L290.063 81.2234L297.645 88.2433L331.621 64.3755L302.138 52.3013Z" fill="#FFD25B"/>
</g>
</g>
<path d="M98.2791 66.0605C110.996 66.0605 121.305 55.7517 121.305 43.0351C121.305 30.3186 110.996 20.0098 98.2791 20.0098C85.5626 20.0098 75.2538 30.3186 75.2538 43.0351C75.2538 55.7517 85.5626 66.0605 98.2791 66.0605Z" fill="#EBEEF6"/>
<path fill-rule="evenodd" clip-rule="evenodd" d="M148.822 104.248L144.891 116.322C135.531 116.322 130.851 116.322 130.851 116.322C130.851 116.322 135.531 117.539 144.891 119.973C146.389 129.894 147.138 134.855 147.138 134.855C147.138 134.855 148.074 130.362 149.946 121.377L162.02 118.569L149.946 116.322L148.822 104.248Z" fill="#FFD25B"/>
<path fill-rule="evenodd" clip-rule="evenodd" d="M436.92 43.0347L432.989 55.1089C423.629 55.1089 418.949 55.1089 418.949 55.1089C418.949 55.1089 423.629 56.3257 432.989 58.7593C434.487 68.6808 435.236 73.6416 435.236 73.6416C435.236 73.6416 436.172 69.1488 438.043 60.1633L450.118 57.3553L438.043 55.1089L436.92 43.0347Z" fill="#FFD25B"/>
<path fill-rule="evenodd" clip-rule="evenodd" d="M463.437 151.984L460.462 161.067C453.379 161.067 449.837 161.067 449.837 161.067C449.837 161.067 453.379 161.983 460.462 163.813C461.595 171.277 462.162 175.009 462.162 175.009C462.162 175.009 462.87 171.629 464.287 164.87L473.424 162.757L464.287 161.067L463.437 151.984Z" fill="#FFD25B"/>
<path fill-rule="evenodd" clip-rule="evenodd" d="M206.854 41.6309L204.233 49.6065C197.993 49.6065 194.873 49.6065 194.873 49.6065C194.873 49.6065 197.993 50.4103 204.233 52.0178C205.231 58.5714 205.731 61.8483 205.731 61.8483C205.731 61.8483 206.355 58.8806 207.603 52.9452L215.652 51.0904L207.603 49.6065L206.854 41.6309Z" fill="#FFD25B"/>
<path fill-rule="evenodd" clip-rule="evenodd" d="M149.784 289.06C149.786 289.08 149.786 289.101 149.784 289.121C149.673 290.395 142.974 291.503 134.732 290.78C126.49 290.058 120.07 288.477 120.181 287.203C120.187 287.135 120.211 287.07 120.253 287.007L122.427 276.097L122.323 265.535L123.608 252.304L152.574 254.809L148.579 265.932L149.828 289.063L149.784 289.06ZM506.18 309.745C506.186 309.764 506.191 309.784 506.195 309.804C506.417 311.063 500.233 313.867 492.085 315.302C483.937 316.738 477.326 316.872 477.104 315.613C477.091 315.539 477.101 315.462 477.131 315.382L477.074 305.861L472.339 294.137C471.573 292.238 471.198 290.204 471.239 288.157L471.381 281.016L500.009 275.939C501.279 279.655 502.058 282.89 502.346 285.644C502.634 288.397 502.634 292.609 502.346 298.28L506.223 309.737L506.18 309.745ZM446.327 306.232C446.328 306.252 446.329 306.272 446.327 306.293C446.238 307.568 439.559 308.793 431.306 308.215C423.053 307.636 416.606 306.167 416.695 304.891C416.7 304.826 416.722 304.762 416.76 304.7L418.388 294.629L418.459 283.19L419.512 269.938L448.518 271.937L444.502 291.54L446.37 306.234L446.327 306.232Z" fill="#847DAA"/>
<path fill-rule="evenodd" clip-rule="evenodd" d="M137.898 255.964C130.005 255.272 123.696 253.678 123.808 252.404C123.919 251.13 130.408 250.659 138.301 251.35C146.195 252.042 152.504 253.636 152.392 254.91C152.281 256.184 145.792 256.656 137.898 255.964ZM486.133 280.853C478.329 282.227 471.823 282.321 471.601 281.062C471.379 279.802 477.524 277.667 485.328 276.292C493.132 274.918 499.638 274.824 499.86 276.083C500.082 277.343 493.936 279.478 486.133 280.853ZM433.865 273.348C425.961 272.794 419.625 271.311 419.714 270.035C419.803 268.76 426.283 268.175 434.187 268.729C442.091 269.283 448.427 270.766 448.338 272.042C448.249 273.317 441.769 273.902 433.865 273.348Z" fill="#60588E"/>
<path d="M144.815 276.003L144.519 279.381L141.324 279.102L141.102 281.636L136.994 281.276L137.215 278.742L125.94 277.756L126.236 274.377L138.355 265.717L142.463 266.077L141.619 275.723L144.815 276.003ZM130.64 275.468L137.329 276.054L137.847 270.126L130.64 275.468ZM498 298.419L498.589 301.759L495.43 302.316L495.871 304.821L491.81 305.537L491.368 303.032L480.222 304.997L479.633 301.657L489.098 290.156L493.159 289.44L494.841 298.976L498 298.419ZM484.17 301.571L490.782 300.405L489.749 294.546L484.17 301.571ZM432.428 299.122C426.335 299.122 423.442 296.327 423.442 291.238C423.442 286.171 426.335 283.397 432.428 283.397C438.498 283.397 441.413 286.193 441.413 291.238C441.413 296.305 438.498 299.122 432.428 299.122ZM432.428 296.314C435.9 296.314 437.482 294.51 437.482 291.518C437.482 288.548 435.9 286.767 432.428 286.767C428.955 286.767 427.373 288.526 427.373 291.518C427.373 294.533 428.955 296.314 432.428 296.314Z" fill="white"/>
<path fill-rule="evenodd" clip-rule="evenodd" d="M143.181 214.946L145.546 215.441L140.212 253.279C140.125 253.897 139.553 254.327 138.935 254.24C138.91 254.237 138.885 254.233 138.861 254.227C138.196 254.088 137.752 253.457 137.847 252.784L143.181 214.946ZM437.673 232.293L440.046 232.747L435.373 270.672C435.297 271.292 434.733 271.732 434.113 271.656C434.088 271.653 434.063 271.649 434.039 271.644C433.371 271.517 432.917 270.893 433 270.219L437.673 232.293ZM476.987 240.185L479.384 239.882L486.66 277.396C486.779 278.009 486.378 278.602 485.765 278.721C485.74 278.725 485.716 278.729 485.691 278.733C485.017 278.818 484.392 278.365 484.262 277.698L476.987 240.185Z" fill="#2B254E"/>
<path fill-rule="evenodd" clip-rule="evenodd" d="M90.9782 57.3553C92.0551 57.3553 92.8885 57.0321 93.5054 56.2322C93.9545 55.6497 94.3478 54.7045 94.3478 53.9858C94.3478 53.0798 94.1832 52.0979 93.5054 51.4586C92.9069 50.8941 91.8509 50.6162 90.9782 50.6162C90.0895 50.6162 89.0531 50.8763 88.451 51.4586C87.7924 52.0956 87.6086 53.0946 87.6086 53.9858C87.6086 55.6917 89.1172 57.3553 90.9782 57.3553Z" fill="#C1C6D3"/>
<path fill-rule="evenodd" clip-rule="evenodd" d="M103.895 39.6648C105.51 39.6648 106.76 39.1801 107.686 37.9801C108.359 37.1063 108.949 35.6886 108.949 34.6105C108.949 33.2516 108.702 31.7786 107.686 30.8197C106.788 29.973 105.204 29.5562 103.895 29.5562C102.562 29.5562 101.007 29.9463 100.104 30.8197C99.1162 31.7752 98.8406 33.2737 98.8406 34.6105C98.8406 37.1693 101.103 39.6648 103.895 39.6648Z" fill="#C1C6D3"/>
<path fill-rule="evenodd" clip-rule="evenodd" d="M111.131 48.8285C111.816 48.4005 112.217 47.8637 112.292 47.1097C112.346 46.5607 112.22 45.8033 111.935 45.3461C111.575 44.7699 111.08 44.2108 110.395 44.0735C109.79 43.9524 109.007 44.1953 108.452 44.5421C107.887 44.8954 107.331 45.4727 107.18 46.0823C107.014 46.7492 107.294 47.4577 107.648 48.0245C108.326 49.1095 109.947 49.5681 111.131 48.8285Z" fill="#C1C6D3"/>
</svg>
